<?xml version="1.0" encoding="UTF-8" standalone="no" ?>
<!DOCTYPE svg PUBLIC "-//W3C//DTD SVG 1.1//EN" "http://www.w3.org/Graphics/SVG/1.1/DTD/svg11.dtd">
<svg xmlns="http://www.w3.org/2000/svg" xmlns:xlink="http://www.w3.org/1999/xlink" version="1.1" role="img" width="32" height="32" viewBox="0 0 1080 1080" xml:space="preserve">
<desc>Created with Fabric.js 5.2.4</desc>
<defs>
</defs>
<g transform="matrix(1 0 0 1 540 540)" id="3d0de536-d198-45c5-89ea-35ebad7de5a1"  >
<rect style="stroke: none; stroke-width: 1; stroke-dasharray: none; stroke-linecap: butt; stroke-dashoffset: 0; stroke-linejoin: miter; stroke-miterlimit: 4; fill: rgb(255,255,255); fill-rule: nonzero; opacity: 1; visibility: hidden;" vector-effect="non-scaling-stroke"  x="-540" y="-540" rx="0" ry="0" width="1080" height="1080" />
</g>
<g transform="matrix(1 0 0 1 540 540)" id="94573d0e-892d-4379-a311-1e3277d18f07"  >
</g>
<g transform="matrix(1 0 0 1 540 540)" id="b89e6f08-cdfb-478a-be96-a2992fca793c"  >
<path style="stroke: rgb(0,0,0); stroke-width: 0; stroke-dasharray: none; stroke-linecap: butt; stroke-dashoffset: 0; stroke-linejoin: miter; stroke-miterlimit: 4; fill: rgb(0,104,208); fill-rule: nonzero; opacity: 1;" vector-effect="non-scaling-stroke"  transform=" translate(-288, -252.22)" d="M 408 120 C 408 174.6 334.9 271.9 302.8 312 C 295.1 321.6 280.8 321.6 273.2 312 C 241.1 271.9 168 174.6 168 120 C 168 53.7 221.7 0 288 0 C 354.3 0 408 53.7 408 120 z M 416 200.4 C 419.5 193.5 422.7 186.6 425.6 179.8 C 426.1 178.60000000000002 426.6 177.3 427.1 176.10000000000002 L 543.1 129.70000000000002 C 558.9 123.4 576 135 576 152 L 576 422.8 C 576 432.6 570 441.40000000000003 560.9 445.1 L 416 503 L 416 200.4 z M 137.6 138.3 C 140 152.4 144.79999999999998 166.60000000000002 150.4 179.8 C 153.3 186.60000000000002 156.5 193.5 160 200.4 L 160 451.8 L 32.9 502.7 C 17.1 509 0 497.4 0 480.4 L 0 209.6 C 0 199.79999999999998 6 191 15.1 187.29999999999998 L 137.7 138.29999999999998 z M 327.8 332 C 341.7 314.6 363.5 286.3 384 255 L 384 504.3 L 192 449.4 L 192 255 C 212.5 286.3 234.3 314.6 248.2 332 C 268.7 357.6 307.3 357.6 327.79999999999995 332 z M 288 152 C 310.09138999323176 152 328 134.09138999323173 328 112 C 328 89.90861000676827 310.09138999323176 72 288 72 C 265.90861000676824 72 248 89.90861000676827 248 112 C 248 134.09138999323173 265.90861000676824 152 288 152 z" stroke-linecap="round" />
</g>
</svg>