<?xml version="1.0" encoding="UTF-8" standalone="no"?>
<!-- Created with Inkscape (http://www.inkscape.org/) -->

<svg
   width="201.60001mm"
   height="170.8mm"
   viewBox="0 0 201.60001 170.80001"
   version="1.1"
   id="svg5"
   xml:space="preserve"
   inkscape:version="1.2.2 (732a01da63, 2022-12-09)"
   sodipodi:docname="ground-floor.svg"
   xmlns:inkscape="http://www.inkscape.org/namespaces/inkscape"
   xmlns:sodipodi="http://sodipodi.sourceforge.net/DTD/sodipodi-0.dtd"
   xmlns="http://www.w3.org/2000/svg"
   xmlns:svg="http://www.w3.org/2000/svg"><sodipodi:namedview
     id="namedview7"
     pagecolor="#505050"
     bordercolor="#eeeeee"
     borderopacity="1"
     inkscape:showpageshadow="0"
     inkscape:pageopacity="0"
     inkscape:pagecheckerboard="0"
     inkscape:deskcolor="#505050"
     inkscape:document-units="mm"
     showgrid="false"
     inkscape:zoom="0.52724989"
     inkscape:cx="605.02621"
     inkscape:cy="290.18498"
     inkscape:window-width="1920"
     inkscape:window-height="1017"
     inkscape:window-x="1912"
     inkscape:window-y="-8"
     inkscape:window-maximized="1"
     inkscape:current-layer="svg5"><inkscape:page
       x="0"
       y="0"
       width="201.60002"
       height="170.8"
       id="page251" /><inkscape:page
       x="220"
       y="0"
       width="297.03894"
       height="209.90279"
       id="page253" /></sodipodi:namedview><defs
     id="defs2"><clipPath
       clipPathUnits="userSpaceOnUse"
       id="clipPath25"><path
         d="M 0,2083 H 4194 V 7015 H 0 V 2083"
         id="path23" /></clipPath></defs><g
     inkscape:label="Vrstva 1"
     inkscape:groupmode="layer"
     id="layer1" /><g
     id="g19"
     transform="matrix(0,-0.04233333,-0.04233333,0,292.99668,173.40359)"><g
       id="g21"
       clip-path="url(#clipPath25)"><g
         id="g27"><path
           d="m 4091,6324 v 592 l -462,-592 z m 0,592 -462,-592 v 592 z"
           style="fill:#c7c8ca;fill-opacity:1;fill-rule:nonzero;stroke:#c7c8ca;stroke-width:6.25;stroke-linecap:butt;stroke-linejoin:miter;stroke-miterlimit:10;stroke-dasharray:none;stroke-opacity:1"
           id="path29" /></g><g
         id="g31"><path
           d="m 3611,6324 v 465 l -180,-465 z m 0,465 -180,-465 v 465 z"
           style="fill:#c7c8ca;fill-opacity:1;fill-rule:nonzero;stroke:#c7c8ca;stroke-width:6.25;stroke-linecap:butt;stroke-linejoin:miter;stroke-miterlimit:10;stroke-dasharray:none;stroke-opacity:1"
           id="path33" /></g><g
         id="g35"><path
           d="m 3553,2898 v 217 l -136,-217 z m 0,217 -136,-217 v 217 z"
           style="fill:#c7c8ca;fill-opacity:1;fill-rule:nonzero;stroke:#c7c8ca;stroke-width:6.25;stroke-linecap:butt;stroke-linejoin:miter;stroke-miterlimit:10;stroke-dasharray:none;stroke-opacity:1"
           id="path37" /></g><g
         id="g39"><path
           d="m 3546,2166 v 461 l -330,-461 z m 0,461 -330,-461 v 461 z"
           style="fill:#c7c8ca;fill-opacity:1;fill-rule:nonzero;stroke:#c7c8ca;stroke-width:6.25;stroke-linecap:butt;stroke-linejoin:miter;stroke-miterlimit:10;stroke-dasharray:none;stroke-opacity:1"
           id="path41" /></g><g
         id="g43"><path
           d="m 3403,2898 v 217 l -336,-217 z m 0,217 -336,-217 v 217 z"
           style="fill:#c7c8ca;fill-opacity:1;fill-rule:nonzero;stroke:#c7c8ca;stroke-width:6.25;stroke-linecap:butt;stroke-linejoin:miter;stroke-miterlimit:10;stroke-dasharray:none;stroke-opacity:1"
           id="path45" /></g><g
         id="g47"><path
           d="m 3042,3010 v 105 l -1,-105 z m 0,105 -1,-105 v 105 z"
           style="fill:#c7c8ca;fill-opacity:1;fill-rule:nonzero;stroke:#c7c8ca;stroke-width:6.25;stroke-linecap:butt;stroke-linejoin:miter;stroke-miterlimit:10;stroke-dasharray:none;stroke-opacity:1"
           id="path49" /></g><g
         id="g51"><path
           d="m 3041,3010 v 105 l -6,-105 z m 0,105 -6,-105 v 105 z"
           style="fill:#c7c8ca;fill-opacity:1;fill-rule:nonzero;stroke:#c7c8ca;stroke-width:6.25;stroke-linecap:butt;stroke-linejoin:miter;stroke-miterlimit:10;stroke-dasharray:none;stroke-opacity:1"
           id="path53" /></g><g
         id="g55"><path
           d="m 3410,6324 v 465 l -418,-465 z m 0,465 -418,-465 v 465 z"
           style="fill:#c7c8ca;fill-opacity:1;fill-rule:nonzero;stroke:#c7c8ca;stroke-width:6.25;stroke-linecap:butt;stroke-linejoin:miter;stroke-miterlimit:10;stroke-dasharray:none;stroke-opacity:1"
           id="path57" /></g><g
         id="g59"><path
           d="m 3035,2898 v 217 l -111,-217 z m 0,217 -111,-217 v 217 z"
           style="fill:#c7c8ca;fill-opacity:1;fill-rule:nonzero;stroke:#c7c8ca;stroke-width:6.25;stroke-linecap:butt;stroke-linejoin:miter;stroke-miterlimit:10;stroke-dasharray:none;stroke-opacity:1"
           id="path61" /></g><g
         id="g63"><path
           d="m 2924,3010 v 105 l -7,-105 z m 0,105 -7,-105 v 105 z"
           style="fill:#c7c8ca;fill-opacity:1;fill-rule:nonzero;stroke:#c7c8ca;stroke-width:6.25;stroke-linecap:butt;stroke-linejoin:miter;stroke-miterlimit:10;stroke-dasharray:none;stroke-opacity:1"
           id="path65" /></g><g
         id="g67"><path
           d="m 3210,2166 v 461 l -368,-461 z m 0,461 -368,-461 v 461 z"
           style="fill:#c7c8ca;fill-opacity:1;fill-rule:nonzero;stroke:#c7c8ca;stroke-width:6.25;stroke-linecap:butt;stroke-linejoin:miter;stroke-miterlimit:10;stroke-dasharray:none;stroke-opacity:1"
           id="path69" /></g><g
         id="g71"><path
           d="m 2892,2898 v 217 l -125,-217 z m 0,217 -125,-217 v 217 z"
           style="fill:#c7c8ca;fill-opacity:1;fill-rule:nonzero;stroke:#c7c8ca;stroke-width:6.25;stroke-linecap:butt;stroke-linejoin:miter;stroke-miterlimit:10;stroke-dasharray:none;stroke-opacity:1"
           id="path73" /></g><g
         id="g75"><path
           d="m 2735,2898 v 217 l -106,-217 z m 0,217 -106,-217 v 217 z"
           style="fill:#c7c8ca;fill-opacity:1;fill-rule:nonzero;stroke:#c7c8ca;stroke-width:6.25;stroke-linecap:butt;stroke-linejoin:miter;stroke-miterlimit:10;stroke-dasharray:none;stroke-opacity:1"
           id="path77" /></g><g
         id="g79"><path
           d="m 2623,2898 v 217 l -149,-217 z m 0,217 -149,-217 v 217 z"
           style="fill:#c7c8ca;fill-opacity:1;fill-rule:nonzero;stroke:#c7c8ca;stroke-width:6.25;stroke-linecap:butt;stroke-linejoin:miter;stroke-miterlimit:10;stroke-dasharray:none;stroke-opacity:1"
           id="path81" /></g><g
         id="g83"><path
           d="m 2809,2166 v 461 l -417,-461 z m 0,461 -417,-461 v 461 z"
           style="fill:#c7c8ca;fill-opacity:1;fill-rule:nonzero;stroke:#c7c8ca;stroke-width:6.25;stroke-linecap:butt;stroke-linejoin:miter;stroke-miterlimit:10;stroke-dasharray:none;stroke-opacity:1"
           id="path85" /></g><g
         id="g87"><path
           d="m 2378,2166 v 461 l -181,-461 z m 0,461 -181,-461 v 461 z"
           style="fill:#c7c8ca;fill-opacity:1;fill-rule:nonzero;stroke:#c7c8ca;stroke-width:6.25;stroke-linecap:butt;stroke-linejoin:miter;stroke-miterlimit:10;stroke-dasharray:none;stroke-opacity:1"
           id="path89" /></g><g
         id="g91"><path
           d="m 2316,2898 v 217 l -124,-217 z m 0,217 -124,-217 v 217 z"
           style="fill:#c7c8ca;fill-opacity:1;fill-rule:nonzero;stroke:#c7c8ca;stroke-width:6.25;stroke-linecap:butt;stroke-linejoin:miter;stroke-miterlimit:10;stroke-dasharray:none;stroke-opacity:1"
           id="path93" /></g><g
         id="g95"><path
           d="m 2160,2898 v 217 l -262,-217 z m 0,217 -262,-217 v 217 z"
           style="fill:#c7c8ca;fill-opacity:1;fill-rule:nonzero;stroke:#c7c8ca;stroke-width:6.25;stroke-linecap:butt;stroke-linejoin:miter;stroke-miterlimit:10;stroke-dasharray:none;stroke-opacity:1"
           id="path97" /></g><g
         id="g99"><path
           d="m 2192,2166 v 461 l -387,-461 z m 0,461 -387,-461 v 461 z"
           style="fill:#c7c8ca;fill-opacity:1;fill-rule:nonzero;stroke:#c7c8ca;stroke-width:6.25;stroke-linecap:butt;stroke-linejoin:miter;stroke-miterlimit:10;stroke-dasharray:none;stroke-opacity:1"
           id="path101" /></g><g
         id="g103"><path
           d="m 2953,6324 v 591 L 1748,6324 Z m 0,591 -1205,-591 v 591 z"
           style="fill:#c7c8ca;fill-opacity:1;fill-rule:nonzero;stroke:#c7c8ca;stroke-width:6.25;stroke-linecap:butt;stroke-linejoin:miter;stroke-miterlimit:10;stroke-dasharray:none;stroke-opacity:1"
           id="path105" /></g><g
         id="g107"><path
           d="m 1691,2885 v 75 l -267,-75 z m 0,75 -267,-75 v 75 z"
           style="fill:#c7c8ca;fill-opacity:1;fill-rule:nonzero;stroke:#c7c8ca;stroke-width:6.25;stroke-linecap:butt;stroke-linejoin:miter;stroke-miterlimit:10;stroke-dasharray:none;stroke-opacity:1"
           id="path109" /></g><g
         id="g111"><path
           d="m 1710,6492 v 423 l -349,-423 z m 0,423 -349,-423 v 423 z"
           style="fill:#c7c8ca;fill-opacity:1;fill-rule:nonzero;stroke:#c7c8ca;stroke-width:6.25;stroke-linecap:butt;stroke-linejoin:miter;stroke-miterlimit:10;stroke-dasharray:none;stroke-opacity:1"
           id="path113" /></g><g
         id="g115"><path
           d="m 1398,2885 v 75 l -169,-75 z m 0,75 -169,-75 v 75 z"
           style="fill:#c7c8ca;fill-opacity:1;fill-rule:nonzero;stroke:#c7c8ca;stroke-width:6.25;stroke-linecap:butt;stroke-linejoin:miter;stroke-miterlimit:10;stroke-dasharray:none;stroke-opacity:1"
           id="path117" /></g><g
         id="g119"><path
           d="m 1691,2986 v 518 l -462,-518 z m 0,518 -462,-518 v 518 z"
           style="fill:#c7c8ca;fill-opacity:1;fill-rule:nonzero;stroke:#c7c8ca;stroke-width:6.25;stroke-linecap:butt;stroke-linejoin:miter;stroke-miterlimit:10;stroke-dasharray:none;stroke-opacity:1"
           id="path121" /></g><g
         id="g123"><path
           d="m 1691,3536 v 130 l -462,-130 z m 0,130 -462,-130 v 130 z"
           style="fill:#c7c8ca;fill-opacity:1;fill-rule:nonzero;stroke:#c7c8ca;stroke-width:6.25;stroke-linecap:butt;stroke-linejoin:miter;stroke-miterlimit:10;stroke-dasharray:none;stroke-opacity:1"
           id="path125" /></g><g
         id="g127"><path
           d="m 1691,3673 v 211 l -462,-211 z m 0,211 -462,-211 v 211 z"
           style="fill:#c7c8ca;fill-opacity:1;fill-rule:nonzero;stroke:#c7c8ca;stroke-width:6.25;stroke-linecap:butt;stroke-linejoin:miter;stroke-miterlimit:10;stroke-dasharray:none;stroke-opacity:1"
           id="path129" /></g><g
         id="g131"><path
           d="m 1691,3892 v 506 l -462,-506 z m 0,506 -462,-506 v 506 z"
           style="fill:#c7c8ca;fill-opacity:1;fill-rule:nonzero;stroke:#c7c8ca;stroke-width:6.25;stroke-linecap:butt;stroke-linejoin:miter;stroke-miterlimit:10;stroke-dasharray:none;stroke-opacity:1"
           id="path133" /></g><g
         id="g135"><path
           d="m 1691,4416 v 530 l -462,-530 z m 0,530 -462,-530 v 530 z"
           style="fill:#c7c8ca;fill-opacity:1;fill-rule:nonzero;stroke:#c7c8ca;stroke-width:6.25;stroke-linecap:butt;stroke-linejoin:miter;stroke-miterlimit:10;stroke-dasharray:none;stroke-opacity:1"
           id="path137" /></g><g
         id="g139"><path
           d="m 1691,4980 v 754 l -462,-754 z m 0,754 -462,-754 v 754 z"
           style="fill:#c7c8ca;fill-opacity:1;fill-rule:nonzero;stroke:#c7c8ca;stroke-width:6.25;stroke-linecap:butt;stroke-linejoin:miter;stroke-miterlimit:10;stroke-dasharray:none;stroke-opacity:1"
           id="path141" /></g><g
         id="g143"><path
           d="m 1691,5749 v 298 l -462,-298 z m 0,298 -462,-298 v 298 z"
           style="fill:#c7c8ca;fill-opacity:1;fill-rule:nonzero;stroke:#c7c8ca;stroke-width:6.25;stroke-linecap:butt;stroke-linejoin:miter;stroke-miterlimit:10;stroke-dasharray:none;stroke-opacity:1"
           id="path145" /></g><g
         id="g147"><path
           d="m 1347,6492 v 423 l -343,-423 z m 0,423 -343,-423 v 423 z"
           style="fill:#c7c8ca;fill-opacity:1;fill-rule:nonzero;stroke:#c7c8ca;stroke-width:6.25;stroke-linecap:butt;stroke-linejoin:miter;stroke-miterlimit:10;stroke-dasharray:none;stroke-opacity:1"
           id="path149" /></g><g
         id="g151"><path
           d="m 1778,2166 v 461 l -775,-461 z m 0,461 -775,-461 v 461 z"
           style="fill:#c7c8ca;fill-opacity:1;fill-rule:nonzero;stroke:#c7c8ca;stroke-width:6.25;stroke-linecap:butt;stroke-linejoin:miter;stroke-miterlimit:10;stroke-dasharray:none;stroke-opacity:1"
           id="path153" /></g><g
         id="g155"><path
           d="m 985,6492 v 423 L 636,6492 Z m 0,423 -349,-423 v 423 z"
           style="fill:#c7c8ca;fill-opacity:1;fill-rule:nonzero;stroke:#c7c8ca;stroke-width:6.25;stroke-linecap:butt;stroke-linejoin:miter;stroke-miterlimit:10;stroke-dasharray:none;stroke-opacity:1"
           id="path157" /></g><g
         id="g159"><path
           d="m 747,2166 v 461 L 392,2166 Z m 0,461 -355,-461 v 461 z"
           style="fill:#c7c8ca;fill-opacity:1;fill-rule:nonzero;stroke:#c7c8ca;stroke-width:6.25;stroke-linecap:butt;stroke-linejoin:miter;stroke-miterlimit:10;stroke-dasharray:none;stroke-opacity:1"
           id="path161" /></g><g
         id="g163"><path
           d="m 392,2423 v 204 l -25,-204 z m 0,204 -25,-204 v 204 z"
           style="fill:#c7c8ca;fill-opacity:1;fill-rule:nonzero;stroke:#c7c8ca;stroke-width:6.25;stroke-linecap:butt;stroke-linejoin:miter;stroke-miterlimit:10;stroke-dasharray:none;stroke-opacity:1"
           id="path165" /></g><g
         id="g167"><path
           d="M 334,6579 H 103 v -256 z m -231,0 v -256 l -12,256 z"
           style="fill:#c7c8ca;fill-opacity:1;fill-rule:nonzero;stroke:#c7c8ca;stroke-width:6.25;stroke-linecap:butt;stroke-linejoin:miter;stroke-miterlimit:10;stroke-dasharray:none;stroke-opacity:1"
           id="path169" /></g><g
         id="g171"><path
           d="M 334,6579 V 6323 H 103 Z"
           style="fill:#c7c8ca;fill-opacity:1;fill-rule:nonzero;stroke:#c7c8ca;stroke-width:6.25;stroke-linecap:butt;stroke-linejoin:miter;stroke-miterlimit:10;stroke-dasharray:none;stroke-opacity:1"
           id="path173" /></g><g
         id="g175"><path
           d="M 334,6915 H 85 v -312 z m -249,0 v -312 l -18,312 z"
           style="fill:#c7c8ca;fill-opacity:1;fill-rule:nonzero;stroke:#c7c8ca;stroke-width:6.25;stroke-linecap:butt;stroke-linejoin:miter;stroke-miterlimit:10;stroke-dasharray:none;stroke-opacity:1"
           id="path177" /></g><g
         id="g179"><path
           d="M 334,6915 V 6603 H 85 Z"
           style="fill:#c7c8ca;fill-opacity:1;fill-rule:nonzero;stroke:#c7c8ca;stroke-width:6.25;stroke-linecap:butt;stroke-linejoin:miter;stroke-miterlimit:10;stroke-dasharray:none;stroke-opacity:1"
           id="path181" /></g><path
         d="m 3546,2627 v -461 h -330 v 461 h 330"
         style="fill:none;stroke:#000000;stroke-width:6;stroke-linecap:round;stroke-linejoin:round;stroke-miterlimit:10;stroke-dasharray:none;stroke-opacity:1"
         id="path183" /><path
         d="m 3210,2627 v -461 h -368 v 461 h 368"
         style="fill:none;stroke:#000000;stroke-width:6;stroke-linecap:round;stroke-linejoin:round;stroke-miterlimit:10;stroke-dasharray:none;stroke-opacity:1"
         id="path185" /><path
         d="m 2809,2627 v -461 h -417 v 461 h 417"
         style="fill:none;stroke:#000000;stroke-width:6;stroke-linecap:round;stroke-linejoin:round;stroke-miterlimit:10;stroke-dasharray:none;stroke-opacity:1"
         id="path187" /><path
         d="m 2378,2627 v -461 h -181 v 461 h 181"
         style="fill:none;stroke:#000000;stroke-width:6;stroke-linecap:round;stroke-linejoin:round;stroke-miterlimit:10;stroke-dasharray:none;stroke-opacity:1"
         id="path189" /><path
         d="m 2192,2627 v -461 h -387 v 461 h 387"
         style="fill:none;stroke:#000000;stroke-width:6;stroke-linecap:round;stroke-linejoin:round;stroke-miterlimit:10;stroke-dasharray:none;stroke-opacity:1"
         id="path191" /><path
         d="m 1778,2627 v -461 h -775 v 461 h 775"
         style="fill:none;stroke:#000000;stroke-width:6;stroke-linecap:round;stroke-linejoin:round;stroke-miterlimit:10;stroke-dasharray:none;stroke-opacity:1"
         id="path193" /><path
         d="m 392,2166 v 257 h -25 v 204 H 747 V 2166 H 392"
         style="fill:none;stroke:#000000;stroke-width:6;stroke-linecap:round;stroke-linejoin:round;stroke-miterlimit:10;stroke-dasharray:none;stroke-opacity:1"
         id="path195" /><path
         d="m 3553,3115 v -217 h -136 v 217 h 136"
         style="fill:none;stroke:#000000;stroke-width:6;stroke-linecap:round;stroke-linejoin:round;stroke-miterlimit:10;stroke-dasharray:none;stroke-opacity:1"
         id="path197" /><path
         d="m 3403,3115 v -217 h -336 v 217 h 336"
         style="fill:none;stroke:#000000;stroke-width:6;stroke-linecap:round;stroke-linejoin:round;stroke-miterlimit:10;stroke-dasharray:none;stroke-opacity:1"
         id="path199" /><path
         d="m 3041,3115 h -124 v -105 h 7 v -112 h 111 v 112 h 7 v 105 h -1"
         style="fill:none;stroke:#000000;stroke-width:6;stroke-linecap:round;stroke-linejoin:round;stroke-miterlimit:10;stroke-dasharray:none;stroke-opacity:1"
         id="path201" /><path
         d="m 2892,3115 v -217 h -125 v 217 h 125"
         style="fill:none;stroke:#000000;stroke-width:6;stroke-linecap:round;stroke-linejoin:round;stroke-miterlimit:10;stroke-dasharray:none;stroke-opacity:1"
         id="path203" /><path
         d="m 2735,3115 v -217 h -106 v 217 h 106"
         style="fill:none;stroke:#000000;stroke-width:6;stroke-linecap:round;stroke-linejoin:round;stroke-miterlimit:10;stroke-dasharray:none;stroke-opacity:1"
         id="path205" /><path
         d="m 2623,3115 v -217 h -149 v 217 h 149"
         style="fill:none;stroke:#000000;stroke-width:6;stroke-linecap:round;stroke-linejoin:round;stroke-miterlimit:10;stroke-dasharray:none;stroke-opacity:1"
         id="path207" /><path
         d="m 2316,3115 v -217 h -124 v 217 h 124"
         style="fill:none;stroke:#000000;stroke-width:6;stroke-linecap:round;stroke-linejoin:round;stroke-miterlimit:10;stroke-dasharray:none;stroke-opacity:1"
         id="path209" /><path
         d="m 2160,3115 v -217 h -262 v 217 h 262"
         style="fill:none;stroke:#000000;stroke-width:6;stroke-linecap:round;stroke-linejoin:round;stroke-miterlimit:10;stroke-dasharray:none;stroke-opacity:1"
         id="path211" /><path
         d="m 1691,2960 v -75 h -267 v 75 h 267"
         style="fill:none;stroke:#000000;stroke-width:6;stroke-linecap:round;stroke-linejoin:round;stroke-miterlimit:10;stroke-dasharray:none;stroke-opacity:1"
         id="path213" /><path
         d="m 1398,2960 v -75 h -169 v 75 h 169"
         style="fill:none;stroke:#000000;stroke-width:6;stroke-linecap:round;stroke-linejoin:round;stroke-miterlimit:10;stroke-dasharray:none;stroke-opacity:1"
         id="path215" /><path
         d="m 1691,2986 v 518 h -462 v -518 h 462"
         style="fill:none;stroke:#000000;stroke-width:6;stroke-linecap:round;stroke-linejoin:round;stroke-miterlimit:10;stroke-dasharray:none;stroke-opacity:1"
         id="path217" /><path
         d="m 1691,3536 v 130 h -462 v -130 h 462"
         style="fill:none;stroke:#000000;stroke-width:6;stroke-linecap:round;stroke-linejoin:round;stroke-miterlimit:10;stroke-dasharray:none;stroke-opacity:1"
         id="path219" /><path
         d="m 1691,3673 v 211 h -462 v -211 h 462"
         style="fill:none;stroke:#000000;stroke-width:6;stroke-linecap:round;stroke-linejoin:round;stroke-miterlimit:10;stroke-dasharray:none;stroke-opacity:1"
         id="path221" /><path
         d="m 1691,3892 v 506 h -462 v -506 h 462"
         style="fill:none;stroke:#000000;stroke-width:6;stroke-linecap:round;stroke-linejoin:round;stroke-miterlimit:10;stroke-dasharray:none;stroke-opacity:1"
         id="path223" /><path
         d="m 1691,4416 v 530 h -462 v -530 h 462"
         style="fill:none;stroke:#000000;stroke-width:6;stroke-linecap:round;stroke-linejoin:round;stroke-miterlimit:10;stroke-dasharray:none;stroke-opacity:1"
         id="path225" /><path
         d="m 1691,4980 v 754 h -462 v -754 h 462"
         style="fill:none;stroke:#000000;stroke-width:6;stroke-linecap:round;stroke-linejoin:round;stroke-miterlimit:10;stroke-dasharray:none;stroke-opacity:1"
         id="path227" /><path
         d="m 1691,5749 v 298 h -462 v -298 h 462"
         style="fill:none;stroke:#000000;stroke-width:6;stroke-linecap:round;stroke-linejoin:round;stroke-miterlimit:10;stroke-dasharray:none;stroke-opacity:1"
         id="path229" /><path
         d="m 1710,6915 v -423 h -349 v 423 h 349"
         style="fill:none;stroke:#000000;stroke-width:6;stroke-linecap:round;stroke-linejoin:round;stroke-miterlimit:10;stroke-dasharray:none;stroke-opacity:1"
         id="path231" /><path
         d="m 1347,6915 v -423 h -343 v 423 h 343"
         style="fill:none;stroke:#000000;stroke-width:6;stroke-linecap:round;stroke-linejoin:round;stroke-miterlimit:10;stroke-dasharray:none;stroke-opacity:1"
         id="path233" /><path
         d="M 985,6915 V 6492 H 636 v 423 h 349"
         style="fill:none;stroke:#000000;stroke-width:6;stroke-linecap:round;stroke-linejoin:round;stroke-miterlimit:10;stroke-dasharray:none;stroke-opacity:1"
         id="path235" /><path
         d="M 334,6915 V 6603 H 85 l -18,312 h 267"
         style="fill:none;stroke:#000000;stroke-width:6;stroke-linecap:round;stroke-linejoin:round;stroke-miterlimit:10;stroke-dasharray:none;stroke-opacity:1"
         id="path237" /><path
         d="M 334,6579 V 6323 H 103 l -12,256 h 243"
         style="fill:none;stroke:#000000;stroke-width:6;stroke-linecap:round;stroke-linejoin:round;stroke-miterlimit:10;stroke-dasharray:none;stroke-opacity:1"
         id="path239" /><path
         d="m 1748,6915 v -591 h 1205 v 591 H 1748"
         style="fill:none;stroke:#000000;stroke-width:6;stroke-linecap:round;stroke-linejoin:round;stroke-miterlimit:10;stroke-dasharray:none;stroke-opacity:1"
         id="path241" /><path
         d="m 2992,6324 v 465 h 418 v -465 h -418"
         style="fill:none;stroke:#000000;stroke-width:6;stroke-linecap:round;stroke-linejoin:round;stroke-miterlimit:10;stroke-dasharray:none;stroke-opacity:1"
         id="path243" /><path
         d="m 3431,6324 v 465 h 180 v -465 h -180"
         style="fill:none;stroke:#000000;stroke-width:6;stroke-linecap:round;stroke-linejoin:round;stroke-miterlimit:10;stroke-dasharray:none;stroke-opacity:1"
         id="path245" /><path
         d="m 3629,6324 v 592 h 462 v -592 h -462"
         style="fill:none;stroke:#000000;stroke-width:6;stroke-linecap:round;stroke-linejoin:round;stroke-miterlimit:10;stroke-dasharray:none;stroke-opacity:1"
         id="path247" /></g></g></svg>
