<?xml version="1.0" encoding="UTF-8" standalone="no" ?>
<!DOCTYPE svg PUBLIC "-//W3C//DTD SVG 1.1//EN" "http://www.w3.org/Graphics/SVG/1.1/DTD/svg11.dtd">
<svg xmlns="http://www.w3.org/2000/svg" xmlns:xlink="http://www.w3.org/1999/xlink" version="1.1" width="1080" height="1080" viewBox="0 0 1080 1080" xml:space="preserve">
<desc>Created with Fabric.js 5.2.4</desc>
<defs>
</defs>
<g transform="matrix(1 0 0 1 540 540)" id="619651ab-83bb-461c-a16d-6ffd2a31cb59"  >
</g>
<g transform="matrix(1 0 0 1 540 540)" id="878f9a66-23aa-4a78-9cf8-28fc6e21275c"  >
<rect style="stroke: none; stroke-width: 1; stroke-dasharray: none; stroke-linecap: butt; stroke-dashoffset: 0; stroke-linejoin: miter; stroke-miterlimit: 4; fill: rgb(255,255,255); fill-rule: nonzero; opacity: 1; visibility: hidden;" vector-effect="non-scaling-stroke"  x="-540" y="-540" rx="0" ry="0" width="1080" height="1080" />
</g>
<g transform="matrix(9.68 0 0 9.68 540 540)"  >
<g style="" vector-effect="non-scaling-stroke"   >
		<g transform="matrix(1 0 0 1 8.47 8.55)"  >
<path style="stroke: none; stroke-width: 1; stroke-dasharray: none; stroke-linecap: butt; stroke-dashoffset: 0; stroke-linejoin: miter; stroke-miterlimit: 4; fill: rgb(0,65,108); fill-rule: nonzero; opacity: 1;" vector-effect="non-scaling-stroke"  transform=" translate(-23.46, -25.54)" d="M 29.4 28.5 L 26.7 25.8 C 26.9 25.2 27 24.6 27 24 C 27 22.7 26.5 21.4 25.5 20.5 C 23.6 18.6 20.4 18.6 18.4 20.5 C 17.5 21.4 17 22.7 17 24 C 17 25.3 17.5 26.6 18.5 27.5 C 19.5 28.5 20.8 29 22 29 C 22.6 29 23.2 28.9 23.8 28.7 L 26.5 31.4 C 27.3 32.199999999999996 28.6 32.199999999999996 29.3 31.4 C 30.1 30.6 30.1 29.3 29.4 28.5 z" stroke-linecap="round" />
</g>
		<g transform="matrix(1 0 0 1 -3.96 -1)"  >
<path style="stroke: none; stroke-width: 1; stroke-dasharray: none; stroke-linecap: butt; stroke-dashoffset: 0; stroke-linejoin: miter; stroke-miterlimit: 4; fill: rgb(0,65,108); fill-rule: nonzero; opacity: 1;" vector-effect="non-scaling-stroke"  transform=" translate(-11.03, -15.98)" d="M 17.1 28.9 C 16.8 28.599999999999998 16.5 28.299999999999997 16.3 28 L 2.3000000000000007 28 C 2.900000000000001 26 4.500000000000001 24.5 6.500000000000001 23.9 C 9.200000000000001 23.2 11 20.799999999999997 11 18.099999999999998 C 11 17.7 10.8 17.4 10.5 17.2 C 9 16.4 8.1 14.7 8 12.9 C 8 12.200000000000001 8.5 11.5 9.2 11.3 L 10.299999999999999 10.9 C 10.7 10.8 10.999999999999998 10.4 10.999999999999998 10 L 10.999999999999998 6.8 C 12.799999999999999 9.3 15.399999999999999 11 18.299999999999997 11.7 C 18.1 12.1 18 12.5 18 13 C 18 14.8 17 16.4 15.5 17.3 C 15.2 17.5 15 17.8 15 18.2 C 15 19.2 15.3 20.099999999999998 15.7 21 C 16 20.3 16.5 19.7 17.099999999999998 19.1 C 17.099999999999998 19.1 17.099999999999998 19.1 17.099999999999998 19.1 C 17.099999999999998 19 17.099999999999998 18.900000000000002 16.999999999999996 18.8 C 18.799999999999997 17.5 19.999999999999996 15.4 19.999999999999996 13.100000000000001 C 19.999999999999996 12.500000000000002 20.399999999999995 12.100000000000001 20.999999999999996 12.100000000000001 C 21.599999999999998 12.100000000000001 21.999999999999996 11.700000000000001 21.999999999999996 11.100000000000001 L 21.999999999999996 8.7 C 21.999999999999996 5.299999999999999 19.499999999999996 2.3999999999999995 16.199999999999996 1.9999999999999991 C 14.199999999999996 1.7999999999999992 12.199999999999996 2.499999999999999 10.799999999999995 3.999999999999999 C 9.8 3.9 8.9 4.2 8 4.9 C 6.7 5.8 6 7.3 6 9 L 6 12.8 C 6 12.8 6 12.9 6 12.9 C 6 12.9 6 13 6 13 C 6 13 6 13.1 6 13.1 C 6.1 15.3 7.2 17.4 8.9 18.7 C 8.700000000000001 20.3 7.5 21.599999999999998 5.9 22 C 2.9000000000000004 22.8 0.7000000000000002 25.1 0.10000000000000053 28.1 C 5.273559366969494e-16 28.6 0.10000000000000053 29 0.4000000000000005 29.400000000000002 C 0.8 29.8 1.2 30 1.7 30 L 18.4 30 C 17.9 29.7 17.5 29.4 17.1 28.9 z" stroke-linecap="round" />
</g>
</g>
</g>
<g transform="matrix(NaN NaN NaN NaN 0 0)"  >
<g style=""   >
</g>
</g>
<g transform="matrix(NaN NaN NaN NaN 0 0)"  >
<g style=""   >
</g>
</g>
</svg>